<mxfile host="app.diagrams.net" agent="Mozilla/5.0 (Macintosh; Intel Mac OS X 10_15_7) AppleWebKit/537.36 (KHTML, like Gecko) Chrome/127.0.0.0 Safari/537.36" version="24.7.14" pages="5">
  <diagram name="L1" id="BFDUDT7zp8bW2f1VNkSr">
    <mxGraphModel dx="892" dy="621" grid="1" gridSize="10" guides="1" tooltips="1" connect="1" arrows="1" fold="1" page="1" pageScale="1" pageWidth="850" pageHeight="1100" math="0" shadow="0">
      <root>
        <mxCell id="0" />
        <mxCell id="1" parent="0" />
        <mxCell id="Ar2I6kyapb9o5fW3UJyG-4" value="" style="rounded=0;orthogonalLoop=1;jettySize=auto;html=1;" edge="1" parent="1" source="Ar2I6kyapb9o5fW3UJyG-1" target="Ar2I6kyapb9o5fW3UJyG-2">
          <mxGeometry relative="1" as="geometry" />
        </mxCell>
        <mxCell id="Ar2I6kyapb9o5fW3UJyG-1" value="主节点" style="image;aspect=fixed;html=1;points=[];align=center;fontSize=12;image=img/lib/azure2/databases/Azure_Database_MySQL_Server.svg;" vertex="1" parent="1">
          <mxGeometry x="208" y="198" width="48" height="64" as="geometry" />
        </mxCell>
        <mxCell id="Ar2I6kyapb9o5fW3UJyG-5" value="" style="edgeStyle=orthogonalEdgeStyle;rounded=0;orthogonalLoop=1;jettySize=auto;html=1;" edge="1" parent="1" source="Ar2I6kyapb9o5fW3UJyG-2" target="Ar2I6kyapb9o5fW3UJyG-3">
          <mxGeometry relative="1" as="geometry" />
        </mxCell>
        <mxCell id="oi42S8Nz0SJRRiCIxCUv-2" value="" style="edgeStyle=orthogonalEdgeStyle;rounded=0;orthogonalLoop=1;jettySize=auto;html=1;" edge="1" parent="1" source="Ar2I6kyapb9o5fW3UJyG-2" target="uQp_ELIqiohpTSqB1h4A-3">
          <mxGeometry relative="1" as="geometry" />
        </mxCell>
        <mxCell id="Ar2I6kyapb9o5fW3UJyG-2" value="从节点" style="image;aspect=fixed;html=1;points=[];align=center;fontSize=12;image=img/lib/azure2/databases/Azure_Database_MySQL_Server.svg;" vertex="1" parent="1">
          <mxGeometry x="150" y="338" width="48" height="64" as="geometry" />
        </mxCell>
        <mxCell id="Ar2I6kyapb9o5fW3UJyG-6" value="" style="rounded=0;orthogonalLoop=1;jettySize=auto;html=1;" edge="1" parent="1" source="Ar2I6kyapb9o5fW3UJyG-3" target="Ar2I6kyapb9o5fW3UJyG-1">
          <mxGeometry relative="1" as="geometry" />
        </mxCell>
        <mxCell id="oi42S8Nz0SJRRiCIxCUv-1" value="" style="edgeStyle=orthogonalEdgeStyle;rounded=0;orthogonalLoop=1;jettySize=auto;html=1;" edge="1" parent="1" source="Ar2I6kyapb9o5fW3UJyG-3" target="uQp_ELIqiohpTSqB1h4A-2">
          <mxGeometry relative="1" as="geometry" />
        </mxCell>
        <mxCell id="Ar2I6kyapb9o5fW3UJyG-3" value="从节点" style="image;aspect=fixed;html=1;points=[];align=center;fontSize=12;image=img/lib/azure2/databases/Azure_Database_MySQL_Server.svg;" vertex="1" parent="1">
          <mxGeometry x="278" y="338" width="48" height="64" as="geometry" />
        </mxCell>
        <mxCell id="Ar2I6kyapb9o5fW3UJyG-8" value="" style="rounded=0;orthogonalLoop=1;jettySize=auto;html=1;" edge="1" parent="1" source="Ar2I6kyapb9o5fW3UJyG-7" target="Ar2I6kyapb9o5fW3UJyG-1">
          <mxGeometry relative="1" as="geometry" />
        </mxCell>
        <mxCell id="Ar2I6kyapb9o5fW3UJyG-9" value="" style="rounded=0;orthogonalLoop=1;jettySize=auto;html=1;" edge="1" parent="1" source="Ar2I6kyapb9o5fW3UJyG-7" target="Ar2I6kyapb9o5fW3UJyG-3">
          <mxGeometry relative="1" as="geometry" />
        </mxCell>
        <mxCell id="Ar2I6kyapb9o5fW3UJyG-10" value="" style="rounded=0;orthogonalLoop=1;jettySize=auto;html=1;" edge="1" parent="1" source="Ar2I6kyapb9o5fW3UJyG-7" target="Ar2I6kyapb9o5fW3UJyG-2">
          <mxGeometry relative="1" as="geometry" />
        </mxCell>
        <mxCell id="Ar2I6kyapb9o5fW3UJyG-7" value="router" style="image;aspect=fixed;html=1;points=[];align=center;fontSize=12;image=img/lib/azure2/databases/Azure_Database_MySQL_Server.svg;" vertex="1" parent="1">
          <mxGeometry x="388" y="238" width="48" height="64" as="geometry" />
        </mxCell>
        <mxCell id="Ar2I6kyapb9o5fW3UJyG-15" value="" style="edgeStyle=orthogonalEdgeStyle;rounded=0;orthogonalLoop=1;jettySize=auto;html=1;" edge="1" parent="1" source="Ar2I6kyapb9o5fW3UJyG-12" target="Ar2I6kyapb9o5fW3UJyG-7">
          <mxGeometry relative="1" as="geometry" />
        </mxCell>
        <mxCell id="Ar2I6kyapb9o5fW3UJyG-12" value="App服务器" style="image;aspect=fixed;html=1;points=[];align=center;fontSize=12;image=img/lib/azure2/app_services/App_Services.svg;" vertex="1" parent="1">
          <mxGeometry x="548" y="130" width="68" height="68" as="geometry" />
        </mxCell>
        <mxCell id="Ar2I6kyapb9o5fW3UJyG-17" value="" style="edgeStyle=orthogonalEdgeStyle;rounded=0;orthogonalLoop=1;jettySize=auto;html=1;" edge="1" parent="1" source="Ar2I6kyapb9o5fW3UJyG-13" target="Ar2I6kyapb9o5fW3UJyG-7">
          <mxGeometry relative="1" as="geometry" />
        </mxCell>
        <mxCell id="Ar2I6kyapb9o5fW3UJyG-13" value="App服务器" style="image;aspect=fixed;html=1;points=[];align=center;fontSize=12;image=img/lib/azure2/app_services/App_Services.svg;" vertex="1" parent="1">
          <mxGeometry x="548" y="358" width="68" height="68" as="geometry" />
        </mxCell>
        <mxCell id="Ar2I6kyapb9o5fW3UJyG-16" value="" style="edgeStyle=orthogonalEdgeStyle;rounded=0;orthogonalLoop=1;jettySize=auto;html=1;" edge="1" parent="1" source="Ar2I6kyapb9o5fW3UJyG-14" target="Ar2I6kyapb9o5fW3UJyG-7">
          <mxGeometry relative="1" as="geometry" />
        </mxCell>
        <mxCell id="Ar2I6kyapb9o5fW3UJyG-14" value="App服务器" style="image;aspect=fixed;html=1;points=[];align=center;fontSize=12;image=img/lib/azure2/app_services/App_Services.svg;" vertex="1" parent="1">
          <mxGeometry x="548" y="236" width="68" height="68" as="geometry" />
        </mxCell>
        <mxCell id="Ar2I6kyapb9o5fW3UJyG-19" value="" style="rounded=0;orthogonalLoop=1;jettySize=auto;html=1;" edge="1" parent="1" source="Ar2I6kyapb9o5fW3UJyG-18" target="Ar2I6kyapb9o5fW3UJyG-12">
          <mxGeometry relative="1" as="geometry" />
        </mxCell>
        <mxCell id="Ar2I6kyapb9o5fW3UJyG-20" value="" style="rounded=0;orthogonalLoop=1;jettySize=auto;html=1;" edge="1" parent="1" source="Ar2I6kyapb9o5fW3UJyG-18" target="Ar2I6kyapb9o5fW3UJyG-14">
          <mxGeometry relative="1" as="geometry" />
        </mxCell>
        <mxCell id="Ar2I6kyapb9o5fW3UJyG-21" value="" style="rounded=0;orthogonalLoop=1;jettySize=auto;html=1;" edge="1" parent="1" source="Ar2I6kyapb9o5fW3UJyG-18" target="Ar2I6kyapb9o5fW3UJyG-13">
          <mxGeometry relative="1" as="geometry" />
        </mxCell>
        <mxCell id="Ar2I6kyapb9o5fW3UJyG-18" value="" style="image;aspect=fixed;html=1;points=[];align=center;fontSize=12;image=img/lib/azure2/app_services/App_Service_Domains.svg;" vertex="1" parent="1">
          <mxGeometry x="738" y="242.5" width="68" height="55.00000000000001" as="geometry" />
        </mxCell>
        <mxCell id="81i1dUO_mtLAsaVfOT57-1" value="router故障转移用" style="image;aspect=fixed;html=1;points=[];align=center;fontSize=12;image=img/lib/azure2/databases/Azure_Database_MySQL_Server.svg;" vertex="1" parent="1">
          <mxGeometry x="388" y="66" width="48" height="64" as="geometry" />
        </mxCell>
        <mxCell id="81i1dUO_mtLAsaVfOT57-2" value="监控程序&lt;div&gt;&lt;br&gt;&lt;/div&gt;" style="image;aspect=fixed;html=1;points=[];align=center;fontSize=12;image=img/lib/azure2/app_services/App_Services.svg;" vertex="1" parent="1">
          <mxGeometry x="388" y="540" width="68" height="68" as="geometry" />
        </mxCell>
        <mxCell id="uQp_ELIqiohpTSqB1h4A-1" value="" style="edgeStyle=orthogonalEdgeStyle;rounded=0;orthogonalLoop=1;jettySize=auto;html=1;" edge="1" parent="1" source="81i1dUO_mtLAsaVfOT57-3" target="81i1dUO_mtLAsaVfOT57-2">
          <mxGeometry relative="1" as="geometry" />
        </mxCell>
        <mxCell id="81i1dUO_mtLAsaVfOT57-3" value="时序数据库" style="image;aspect=fixed;html=1;points=[];align=center;fontSize=12;image=img/lib/azure2/databases/SQL_Server.svg;" vertex="1" parent="1">
          <mxGeometry x="560" y="540" width="68" height="68" as="geometry" />
        </mxCell>
        <mxCell id="uQp_ELIqiohpTSqB1h4A-2" value="增量备份" style="sketch=0;outlineConnect=0;fontColor=#232F3E;gradientColor=none;fillColor=#7AA116;strokeColor=none;dashed=0;verticalLabelPosition=bottom;verticalAlign=top;align=center;html=1;fontSize=12;fontStyle=0;aspect=fixed;pointerEvents=1;shape=mxgraph.aws4.backup_compute;" vertex="1" parent="1">
          <mxGeometry x="263" y="500" width="78" height="77" as="geometry" />
        </mxCell>
        <mxCell id="uQp_ELIqiohpTSqB1h4A-3" value="全量备份" style="sketch=0;outlineConnect=0;fontColor=#232F3E;gradientColor=none;fillColor=#7AA116;strokeColor=none;dashed=0;verticalLabelPosition=bottom;verticalAlign=top;align=center;html=1;fontSize=12;fontStyle=0;aspect=fixed;pointerEvents=1;shape=mxgraph.aws4.backup_compute;" vertex="1" parent="1">
          <mxGeometry x="135" y="500" width="78" height="77" as="geometry" />
        </mxCell>
        <mxCell id="oi42S8Nz0SJRRiCIxCUv-3" value="" style="endArrow=classic;html=1;rounded=0;" edge="1" parent="1" source="Ar2I6kyapb9o5fW3UJyG-1" target="81i1dUO_mtLAsaVfOT57-3">
          <mxGeometry width="50" height="50" relative="1" as="geometry">
            <mxPoint x="370" y="400" as="sourcePoint" />
            <mxPoint x="420" y="350" as="targetPoint" />
          </mxGeometry>
        </mxCell>
        <mxCell id="oi42S8Nz0SJRRiCIxCUv-4" value="" style="endArrow=classic;html=1;rounded=0;" edge="1" parent="1" source="Ar2I6kyapb9o5fW3UJyG-2" target="81i1dUO_mtLAsaVfOT57-3">
          <mxGeometry width="50" height="50" relative="1" as="geometry">
            <mxPoint x="370" y="400" as="sourcePoint" />
            <mxPoint x="420" y="350" as="targetPoint" />
          </mxGeometry>
        </mxCell>
        <mxCell id="oi42S8Nz0SJRRiCIxCUv-5" value="" style="endArrow=classic;html=1;rounded=0;" edge="1" parent="1" source="Ar2I6kyapb9o5fW3UJyG-3" target="81i1dUO_mtLAsaVfOT57-3">
          <mxGeometry width="50" height="50" relative="1" as="geometry">
            <mxPoint x="370" y="400" as="sourcePoint" />
            <mxPoint x="420" y="350" as="targetPoint" />
          </mxGeometry>
        </mxCell>
        <mxCell id="oi42S8Nz0SJRRiCIxCUv-6" value="" style="endArrow=classic;html=1;rounded=0;" edge="1" parent="1" source="Ar2I6kyapb9o5fW3UJyG-12" target="81i1dUO_mtLAsaVfOT57-3">
          <mxGeometry width="50" height="50" relative="1" as="geometry">
            <mxPoint x="370" y="430" as="sourcePoint" />
            <mxPoint x="420" y="380" as="targetPoint" />
          </mxGeometry>
        </mxCell>
        <mxCell id="oi42S8Nz0SJRRiCIxCUv-7" value="" style="endArrow=classic;html=1;rounded=0;entryX=0.162;entryY=-0.015;entryDx=0;entryDy=0;entryPerimeter=0;" edge="1" parent="1" source="Ar2I6kyapb9o5fW3UJyG-7" target="81i1dUO_mtLAsaVfOT57-3">
          <mxGeometry width="50" height="50" relative="1" as="geometry">
            <mxPoint x="370" y="400" as="sourcePoint" />
            <mxPoint x="420" y="350" as="targetPoint" />
          </mxGeometry>
        </mxCell>
        <mxCell id="oi42S8Nz0SJRRiCIxCUv-9" value="" style="rounded=0;whiteSpace=wrap;html=1;fillOpacity=0;" vertex="1" parent="1">
          <mxGeometry x="352" y="50" width="118" height="278" as="geometry" />
        </mxCell>
      </root>
    </mxGraphModel>
  </diagram>
  <diagram id="nIjgZ2-SpNTqjJREQWF2" name="L2">
    <mxGraphModel dx="892" dy="621" grid="1" gridSize="10" guides="1" tooltips="1" connect="1" arrows="1" fold="1" page="1" pageScale="1" pageWidth="850" pageHeight="1100" math="0" shadow="0">
      <root>
        <mxCell id="0" />
        <mxCell id="1" parent="0" />
        <mxCell id="2KMu9q8ZVu2z2tUtmJDD-1" value="" style="rounded=0;orthogonalLoop=1;jettySize=auto;html=1;" edge="1" parent="1" source="2KMu9q8ZVu2z2tUtmJDD-2" target="2KMu9q8ZVu2z2tUtmJDD-4">
          <mxGeometry relative="1" as="geometry" />
        </mxCell>
        <mxCell id="2KMu9q8ZVu2z2tUtmJDD-2" value="" style="image;aspect=fixed;html=1;points=[];align=center;fontSize=12;image=img/lib/azure2/databases/Azure_Database_MySQL_Server.svg;" vertex="1" parent="1">
          <mxGeometry x="240" y="80" width="48" height="64" as="geometry" />
        </mxCell>
        <mxCell id="2KMu9q8ZVu2z2tUtmJDD-3" value="" style="edgeStyle=orthogonalEdgeStyle;rounded=0;orthogonalLoop=1;jettySize=auto;html=1;" edge="1" parent="1" source="2KMu9q8ZVu2z2tUtmJDD-4" target="2KMu9q8ZVu2z2tUtmJDD-6">
          <mxGeometry relative="1" as="geometry" />
        </mxCell>
        <mxCell id="2KMu9q8ZVu2z2tUtmJDD-4" value="" style="image;aspect=fixed;html=1;points=[];align=center;fontSize=12;image=img/lib/azure2/databases/Azure_Database_MySQL_Server.svg;" vertex="1" parent="1">
          <mxGeometry x="182" y="220" width="48" height="64" as="geometry" />
        </mxCell>
        <mxCell id="2KMu9q8ZVu2z2tUtmJDD-5" value="" style="rounded=0;orthogonalLoop=1;jettySize=auto;html=1;" edge="1" parent="1" source="2KMu9q8ZVu2z2tUtmJDD-6" target="2KMu9q8ZVu2z2tUtmJDD-2">
          <mxGeometry relative="1" as="geometry" />
        </mxCell>
        <mxCell id="2KMu9q8ZVu2z2tUtmJDD-6" value="" style="image;aspect=fixed;html=1;points=[];align=center;fontSize=12;image=img/lib/azure2/databases/Azure_Database_MySQL_Server.svg;" vertex="1" parent="1">
          <mxGeometry x="310" y="220" width="48" height="64" as="geometry" />
        </mxCell>
        <mxCell id="2KMu9q8ZVu2z2tUtmJDD-7" value="" style="rounded=0;orthogonalLoop=1;jettySize=auto;html=1;" edge="1" parent="1" source="2KMu9q8ZVu2z2tUtmJDD-10" target="2KMu9q8ZVu2z2tUtmJDD-2">
          <mxGeometry relative="1" as="geometry" />
        </mxCell>
        <mxCell id="2KMu9q8ZVu2z2tUtmJDD-8" value="" style="rounded=0;orthogonalLoop=1;jettySize=auto;html=1;" edge="1" parent="1" source="2KMu9q8ZVu2z2tUtmJDD-10" target="2KMu9q8ZVu2z2tUtmJDD-6">
          <mxGeometry relative="1" as="geometry" />
        </mxCell>
        <mxCell id="2KMu9q8ZVu2z2tUtmJDD-9" value="" style="rounded=0;orthogonalLoop=1;jettySize=auto;html=1;" edge="1" parent="1" source="2KMu9q8ZVu2z2tUtmJDD-10" target="2KMu9q8ZVu2z2tUtmJDD-4">
          <mxGeometry relative="1" as="geometry" />
        </mxCell>
        <mxCell id="2KMu9q8ZVu2z2tUtmJDD-10" value="router" style="image;aspect=fixed;html=1;points=[];align=center;fontSize=12;image=img/lib/azure2/databases/Azure_Database_MySQL_Server.svg;" vertex="1" parent="1">
          <mxGeometry x="420" y="120" width="48" height="64" as="geometry" />
        </mxCell>
        <mxCell id="2KMu9q8ZVu2z2tUtmJDD-11" value="" style="edgeStyle=orthogonalEdgeStyle;rounded=0;orthogonalLoop=1;jettySize=auto;html=1;" edge="1" parent="1" source="2KMu9q8ZVu2z2tUtmJDD-12" target="2KMu9q8ZVu2z2tUtmJDD-10">
          <mxGeometry relative="1" as="geometry" />
        </mxCell>
        <mxCell id="2KMu9q8ZVu2z2tUtmJDD-12" value="App服务器" style="image;aspect=fixed;html=1;points=[];align=center;fontSize=12;image=img/lib/azure2/app_services/App_Services.svg;" vertex="1" parent="1">
          <mxGeometry x="580" y="12" width="68" height="68" as="geometry" />
        </mxCell>
        <mxCell id="2KMu9q8ZVu2z2tUtmJDD-13" value="" style="edgeStyle=orthogonalEdgeStyle;rounded=0;orthogonalLoop=1;jettySize=auto;html=1;" edge="1" parent="1" source="2KMu9q8ZVu2z2tUtmJDD-14" target="2KMu9q8ZVu2z2tUtmJDD-10">
          <mxGeometry relative="1" as="geometry" />
        </mxCell>
        <mxCell id="2KMu9q8ZVu2z2tUtmJDD-27" value="" style="rounded=0;orthogonalLoop=1;jettySize=auto;html=1;" edge="1" parent="1" source="2KMu9q8ZVu2z2tUtmJDD-14" target="2KMu9q8ZVu2z2tUtmJDD-23">
          <mxGeometry relative="1" as="geometry" />
        </mxCell>
        <mxCell id="2KMu9q8ZVu2z2tUtmJDD-14" value="App服务器" style="image;aspect=fixed;html=1;points=[];align=center;fontSize=12;image=img/lib/azure2/app_services/App_Services.svg;" vertex="1" parent="1">
          <mxGeometry x="580" y="240" width="68" height="68" as="geometry" />
        </mxCell>
        <mxCell id="2KMu9q8ZVu2z2tUtmJDD-29" value="" style="edgeStyle=orthogonalEdgeStyle;rounded=0;orthogonalLoop=1;jettySize=auto;html=1;" edge="1" parent="1" source="2KMu9q8ZVu2z2tUtmJDD-16" target="2KMu9q8ZVu2z2tUtmJDD-10">
          <mxGeometry relative="1" as="geometry" />
        </mxCell>
        <mxCell id="2KMu9q8ZVu2z2tUtmJDD-16" value="App服务器" style="image;aspect=fixed;html=1;points=[];align=center;fontSize=12;image=img/lib/azure2/app_services/App_Services.svg;" vertex="1" parent="1">
          <mxGeometry x="580" y="118" width="68" height="68" as="geometry" />
        </mxCell>
        <mxCell id="2KMu9q8ZVu2z2tUtmJDD-17" value="" style="rounded=0;orthogonalLoop=1;jettySize=auto;html=1;" edge="1" parent="1" source="2KMu9q8ZVu2z2tUtmJDD-20" target="2KMu9q8ZVu2z2tUtmJDD-12">
          <mxGeometry relative="1" as="geometry" />
        </mxCell>
        <mxCell id="2KMu9q8ZVu2z2tUtmJDD-18" value="" style="rounded=0;orthogonalLoop=1;jettySize=auto;html=1;" edge="1" parent="1" source="2KMu9q8ZVu2z2tUtmJDD-20" target="2KMu9q8ZVu2z2tUtmJDD-16">
          <mxGeometry relative="1" as="geometry" />
        </mxCell>
        <mxCell id="2KMu9q8ZVu2z2tUtmJDD-19" value="" style="rounded=0;orthogonalLoop=1;jettySize=auto;html=1;" edge="1" parent="1" source="2KMu9q8ZVu2z2tUtmJDD-20" target="2KMu9q8ZVu2z2tUtmJDD-14">
          <mxGeometry relative="1" as="geometry" />
        </mxCell>
        <mxCell id="2KMu9q8ZVu2z2tUtmJDD-20" value="" style="image;aspect=fixed;html=1;points=[];align=center;fontSize=12;image=img/lib/azure2/app_services/App_Service_Domains.svg;" vertex="1" parent="1">
          <mxGeometry x="770" y="124.5" width="68" height="55.00000000000001" as="geometry" />
        </mxCell>
        <mxCell id="2KMu9q8ZVu2z2tUtmJDD-23" value="NFS" style="image;aspect=fixed;html=1;points=[];align=center;fontSize=12;image=img/lib/azure2/storage/StorSimple_Data_Managers.svg;" vertex="1" parent="1">
          <mxGeometry x="470" y="390" width="48" height="64" as="geometry" />
        </mxCell>
        <mxCell id="2KMu9q8ZVu2z2tUtmJDD-32" value="" style="rounded=0;orthogonalLoop=1;jettySize=auto;html=1;" edge="1" parent="1" source="2KMu9q8ZVu2z2tUtmJDD-26" target="2KMu9q8ZVu2z2tUtmJDD-10">
          <mxGeometry relative="1" as="geometry" />
        </mxCell>
        <mxCell id="2KMu9q8ZVu2z2tUtmJDD-33" value="" style="edgeStyle=orthogonalEdgeStyle;rounded=0;orthogonalLoop=1;jettySize=auto;html=1;" edge="1" parent="1" source="2KMu9q8ZVu2z2tUtmJDD-26" target="2KMu9q8ZVu2z2tUtmJDD-23">
          <mxGeometry relative="1" as="geometry" />
        </mxCell>
        <mxCell id="2KMu9q8ZVu2z2tUtmJDD-26" value="定时任务" style="points=[[0.145,0.145,0],[0.5,0,0],[0.855,0.145,0],[1,0.5,0],[0.855,0.855,0],[0.5,1,0],[0.145,0.855,0],[0,0.5,0]];shape=mxgraph.bpmn.event;html=1;verticalLabelPosition=bottom;labelBackgroundColor=#ffffff;verticalAlign=top;align=center;perimeter=ellipsePerimeter;outlineConnect=0;aspect=fixed;outline=catching;symbol=timer;" vertex="1" parent="1">
          <mxGeometry x="350" y="397" width="50" height="50" as="geometry" />
        </mxCell>
        <mxCell id="2KMu9q8ZVu2z2tUtmJDD-30" value="" style="endArrow=classic;html=1;rounded=0;" edge="1" parent="1" source="2KMu9q8ZVu2z2tUtmJDD-12" target="2KMu9q8ZVu2z2tUtmJDD-23">
          <mxGeometry width="50" height="50" relative="1" as="geometry">
            <mxPoint x="420" y="220" as="sourcePoint" />
            <mxPoint x="470" y="170" as="targetPoint" />
          </mxGeometry>
        </mxCell>
        <mxCell id="2KMu9q8ZVu2z2tUtmJDD-31" value="" style="endArrow=classic;html=1;rounded=0;" edge="1" parent="1" source="2KMu9q8ZVu2z2tUtmJDD-16" target="2KMu9q8ZVu2z2tUtmJDD-23">
          <mxGeometry width="50" height="50" relative="1" as="geometry">
            <mxPoint x="420" y="220" as="sourcePoint" />
            <mxPoint x="560" y="200" as="targetPoint" />
          </mxGeometry>
        </mxCell>
      </root>
    </mxGraphModel>
  </diagram>
  <diagram id="y6FhThIO_ZO7V0j0Mpfw" name="L3">
    <mxGraphModel dx="892" dy="621" grid="1" gridSize="10" guides="1" tooltips="1" connect="1" arrows="1" fold="1" page="1" pageScale="1" pageWidth="850" pageHeight="1100" math="0" shadow="0">
      <root>
        <mxCell id="0" />
        <mxCell id="1" parent="0" />
        <mxCell id="eptUyO4xNGn-BXEB1Qza-1" value="" style="rounded=0;orthogonalLoop=1;jettySize=auto;html=1;" edge="1" parent="1" source="eptUyO4xNGn-BXEB1Qza-2" target="eptUyO4xNGn-BXEB1Qza-4">
          <mxGeometry relative="1" as="geometry" />
        </mxCell>
        <mxCell id="eptUyO4xNGn-BXEB1Qza-2" value="" style="image;aspect=fixed;html=1;points=[];align=center;fontSize=12;image=img/lib/azure2/databases/Azure_Database_MySQL_Server.svg;" vertex="1" parent="1">
          <mxGeometry x="240" y="80" width="48" height="64" as="geometry" />
        </mxCell>
        <mxCell id="eptUyO4xNGn-BXEB1Qza-3" value="" style="edgeStyle=orthogonalEdgeStyle;rounded=0;orthogonalLoop=1;jettySize=auto;html=1;" edge="1" parent="1" source="eptUyO4xNGn-BXEB1Qza-4" target="eptUyO4xNGn-BXEB1Qza-6">
          <mxGeometry relative="1" as="geometry" />
        </mxCell>
        <mxCell id="eptUyO4xNGn-BXEB1Qza-4" value="" style="image;aspect=fixed;html=1;points=[];align=center;fontSize=12;image=img/lib/azure2/databases/Azure_Database_MySQL_Server.svg;" vertex="1" parent="1">
          <mxGeometry x="182" y="220" width="48" height="64" as="geometry" />
        </mxCell>
        <mxCell id="eptUyO4xNGn-BXEB1Qza-5" value="" style="rounded=0;orthogonalLoop=1;jettySize=auto;html=1;" edge="1" parent="1" source="eptUyO4xNGn-BXEB1Qza-6" target="eptUyO4xNGn-BXEB1Qza-2">
          <mxGeometry relative="1" as="geometry" />
        </mxCell>
        <mxCell id="eptUyO4xNGn-BXEB1Qza-6" value="" style="image;aspect=fixed;html=1;points=[];align=center;fontSize=12;image=img/lib/azure2/databases/Azure_Database_MySQL_Server.svg;" vertex="1" parent="1">
          <mxGeometry x="310" y="220" width="48" height="64" as="geometry" />
        </mxCell>
        <mxCell id="eptUyO4xNGn-BXEB1Qza-7" value="" style="rounded=0;orthogonalLoop=1;jettySize=auto;html=1;" edge="1" parent="1" source="eptUyO4xNGn-BXEB1Qza-10" target="eptUyO4xNGn-BXEB1Qza-2">
          <mxGeometry relative="1" as="geometry" />
        </mxCell>
        <mxCell id="eptUyO4xNGn-BXEB1Qza-8" value="" style="rounded=0;orthogonalLoop=1;jettySize=auto;html=1;" edge="1" parent="1" source="eptUyO4xNGn-BXEB1Qza-10" target="eptUyO4xNGn-BXEB1Qza-6">
          <mxGeometry relative="1" as="geometry" />
        </mxCell>
        <mxCell id="eptUyO4xNGn-BXEB1Qza-9" value="" style="rounded=0;orthogonalLoop=1;jettySize=auto;html=1;" edge="1" parent="1" source="eptUyO4xNGn-BXEB1Qza-10" target="eptUyO4xNGn-BXEB1Qza-4">
          <mxGeometry relative="1" as="geometry" />
        </mxCell>
        <mxCell id="eptUyO4xNGn-BXEB1Qza-10" value="router" style="image;aspect=fixed;html=1;points=[];align=center;fontSize=12;image=img/lib/azure2/databases/Azure_Database_MySQL_Server.svg;" vertex="1" parent="1">
          <mxGeometry x="420" y="120" width="48" height="64" as="geometry" />
        </mxCell>
        <mxCell id="eptUyO4xNGn-BXEB1Qza-11" value="" style="edgeStyle=orthogonalEdgeStyle;rounded=0;orthogonalLoop=1;jettySize=auto;html=1;" edge="1" parent="1" source="eptUyO4xNGn-BXEB1Qza-12" target="eptUyO4xNGn-BXEB1Qza-10">
          <mxGeometry relative="1" as="geometry" />
        </mxCell>
        <mxCell id="eptUyO4xNGn-BXEB1Qza-12" value="App服务器" style="image;aspect=fixed;html=1;points=[];align=center;fontSize=12;image=img/lib/azure2/app_services/App_Services.svg;" vertex="1" parent="1">
          <mxGeometry x="580" y="12" width="68" height="68" as="geometry" />
        </mxCell>
        <mxCell id="eptUyO4xNGn-BXEB1Qza-13" value="" style="edgeStyle=orthogonalEdgeStyle;rounded=0;orthogonalLoop=1;jettySize=auto;html=1;" edge="1" parent="1" source="eptUyO4xNGn-BXEB1Qza-15" target="eptUyO4xNGn-BXEB1Qza-10">
          <mxGeometry relative="1" as="geometry" />
        </mxCell>
        <mxCell id="eptUyO4xNGn-BXEB1Qza-14" value="" style="rounded=0;orthogonalLoop=1;jettySize=auto;html=1;" edge="1" parent="1" source="eptUyO4xNGn-BXEB1Qza-15" target="eptUyO4xNGn-BXEB1Qza-22">
          <mxGeometry relative="1" as="geometry" />
        </mxCell>
        <mxCell id="eptUyO4xNGn-BXEB1Qza-15" value="App服务器" style="image;aspect=fixed;html=1;points=[];align=center;fontSize=12;image=img/lib/azure2/app_services/App_Services.svg;" vertex="1" parent="1">
          <mxGeometry x="580" y="240" width="68" height="68" as="geometry" />
        </mxCell>
        <mxCell id="eptUyO4xNGn-BXEB1Qza-16" value="" style="edgeStyle=orthogonalEdgeStyle;rounded=0;orthogonalLoop=1;jettySize=auto;html=1;" edge="1" parent="1" source="eptUyO4xNGn-BXEB1Qza-17" target="eptUyO4xNGn-BXEB1Qza-10">
          <mxGeometry relative="1" as="geometry" />
        </mxCell>
        <mxCell id="eptUyO4xNGn-BXEB1Qza-17" value="App服务器" style="image;aspect=fixed;html=1;points=[];align=center;fontSize=12;image=img/lib/azure2/app_services/App_Services.svg;" vertex="1" parent="1">
          <mxGeometry x="580" y="118" width="68" height="68" as="geometry" />
        </mxCell>
        <mxCell id="eptUyO4xNGn-BXEB1Qza-18" value="" style="rounded=0;orthogonalLoop=1;jettySize=auto;html=1;" edge="1" parent="1" source="eptUyO4xNGn-BXEB1Qza-21" target="eptUyO4xNGn-BXEB1Qza-12">
          <mxGeometry relative="1" as="geometry" />
        </mxCell>
        <mxCell id="eptUyO4xNGn-BXEB1Qza-19" value="" style="rounded=0;orthogonalLoop=1;jettySize=auto;html=1;" edge="1" parent="1" source="eptUyO4xNGn-BXEB1Qza-21" target="eptUyO4xNGn-BXEB1Qza-17">
          <mxGeometry relative="1" as="geometry" />
        </mxCell>
        <mxCell id="eptUyO4xNGn-BXEB1Qza-20" value="" style="rounded=0;orthogonalLoop=1;jettySize=auto;html=1;" edge="1" parent="1" source="eptUyO4xNGn-BXEB1Qza-21" target="eptUyO4xNGn-BXEB1Qza-15">
          <mxGeometry relative="1" as="geometry" />
        </mxCell>
        <mxCell id="eptUyO4xNGn-BXEB1Qza-21" value="" style="image;aspect=fixed;html=1;points=[];align=center;fontSize=12;image=img/lib/azure2/app_services/App_Service_Domains.svg;" vertex="1" parent="1">
          <mxGeometry x="770" y="124.5" width="68" height="55.00000000000001" as="geometry" />
        </mxCell>
        <mxCell id="eptUyO4xNGn-BXEB1Qza-22" value="NFS" style="image;aspect=fixed;html=1;points=[];align=center;fontSize=12;image=img/lib/azure2/storage/StorSimple_Data_Managers.svg;" vertex="1" parent="1">
          <mxGeometry x="500" y="460" width="48" height="64" as="geometry" />
        </mxCell>
        <mxCell id="eptUyO4xNGn-BXEB1Qza-26" value="" style="endArrow=classic;html=1;rounded=0;" edge="1" parent="1" source="eptUyO4xNGn-BXEB1Qza-12" target="eptUyO4xNGn-BXEB1Qza-22">
          <mxGeometry width="50" height="50" relative="1" as="geometry">
            <mxPoint x="420" y="220" as="sourcePoint" />
            <mxPoint x="470" y="170" as="targetPoint" />
          </mxGeometry>
        </mxCell>
        <mxCell id="eptUyO4xNGn-BXEB1Qza-27" value="" style="endArrow=classic;html=1;rounded=0;" edge="1" parent="1" source="eptUyO4xNGn-BXEB1Qza-17" target="eptUyO4xNGn-BXEB1Qza-22">
          <mxGeometry width="50" height="50" relative="1" as="geometry">
            <mxPoint x="420" y="220" as="sourcePoint" />
            <mxPoint x="560" y="200" as="targetPoint" />
          </mxGeometry>
        </mxCell>
        <mxCell id="eptUyO4xNGn-BXEB1Qza-28" value="Redis集群" style="image;aspect=fixed;html=1;points=[];align=center;fontSize=12;image=img/lib/azure2/databases/Cache_Redis.svg;" vertex="1" parent="1">
          <mxGeometry x="310" y="466" width="64" height="52" as="geometry" />
        </mxCell>
        <mxCell id="eptUyO4xNGn-BXEB1Qza-30" value="" style="edgeStyle=orthogonalEdgeStyle;rounded=0;orthogonalLoop=1;jettySize=auto;html=1;" edge="1" parent="1" source="eptUyO4xNGn-BXEB1Qza-29" target="eptUyO4xNGn-BXEB1Qza-10">
          <mxGeometry relative="1" as="geometry" />
        </mxCell>
        <mxCell id="eptUyO4xNGn-BXEB1Qza-31" value="" style="edgeStyle=orthogonalEdgeStyle;rounded=0;orthogonalLoop=1;jettySize=auto;html=1;" edge="1" parent="1" source="eptUyO4xNGn-BXEB1Qza-29" target="eptUyO4xNGn-BXEB1Qza-28">
          <mxGeometry relative="1" as="geometry" />
        </mxCell>
        <mxCell id="eptUyO4xNGn-BXEB1Qza-32" value="" style="edgeStyle=orthogonalEdgeStyle;rounded=0;orthogonalLoop=1;jettySize=auto;html=1;" edge="1" parent="1" source="eptUyO4xNGn-BXEB1Qza-29" target="eptUyO4xNGn-BXEB1Qza-22">
          <mxGeometry relative="1" as="geometry" />
        </mxCell>
        <mxCell id="eptUyO4xNGn-BXEB1Qza-29" value="ETL" style="image;aspect=fixed;html=1;points=[];align=center;fontSize=12;image=img/lib/azure2/storage/StorSimple_Data_Managers.svg;" vertex="1" parent="1">
          <mxGeometry x="420" y="460" width="48" height="64" as="geometry" />
        </mxCell>
      </root>
    </mxGraphModel>
  </diagram>
  <diagram id="7fVqN9MMZaLEQdqv-YGP" name="L4">
    <mxGraphModel dx="892" dy="621" grid="1" gridSize="10" guides="1" tooltips="1" connect="1" arrows="1" fold="1" page="1" pageScale="1" pageWidth="850" pageHeight="1100" math="0" shadow="0">
      <root>
        <mxCell id="0" />
        <mxCell id="1" parent="0" />
        <mxCell id="fPP4Iizd9QlT9NWYujbH-1" value="" style="rounded=0;orthogonalLoop=1;jettySize=auto;html=1;" edge="1" parent="1" source="fPP4Iizd9QlT9NWYujbH-2" target="fPP4Iizd9QlT9NWYujbH-4">
          <mxGeometry relative="1" as="geometry" />
        </mxCell>
        <mxCell id="fPP4Iizd9QlT9NWYujbH-2" value="" style="image;aspect=fixed;html=1;points=[];align=center;fontSize=12;image=img/lib/azure2/databases/Azure_Database_MySQL_Server.svg;" vertex="1" parent="1">
          <mxGeometry x="168" y="12" width="48" height="64" as="geometry" />
        </mxCell>
        <mxCell id="fPP4Iizd9QlT9NWYujbH-3" value="" style="edgeStyle=orthogonalEdgeStyle;rounded=0;orthogonalLoop=1;jettySize=auto;html=1;" edge="1" parent="1" source="fPP4Iizd9QlT9NWYujbH-4" target="fPP4Iizd9QlT9NWYujbH-6">
          <mxGeometry relative="1" as="geometry" />
        </mxCell>
        <mxCell id="fPP4Iizd9QlT9NWYujbH-4" value="" style="image;aspect=fixed;html=1;points=[];align=center;fontSize=12;image=img/lib/azure2/databases/Azure_Database_MySQL_Server.svg;" vertex="1" parent="1">
          <mxGeometry x="110" y="152" width="48" height="64" as="geometry" />
        </mxCell>
        <mxCell id="fPP4Iizd9QlT9NWYujbH-5" value="" style="rounded=0;orthogonalLoop=1;jettySize=auto;html=1;" edge="1" parent="1" source="fPP4Iizd9QlT9NWYujbH-6" target="fPP4Iizd9QlT9NWYujbH-2">
          <mxGeometry relative="1" as="geometry" />
        </mxCell>
        <mxCell id="fPP4Iizd9QlT9NWYujbH-6" value="" style="image;aspect=fixed;html=1;points=[];align=center;fontSize=12;image=img/lib/azure2/databases/Azure_Database_MySQL_Server.svg;" vertex="1" parent="1">
          <mxGeometry x="238" y="152" width="48" height="64" as="geometry" />
        </mxCell>
        <mxCell id="fPP4Iizd9QlT9NWYujbH-7" value="" style="rounded=0;orthogonalLoop=1;jettySize=auto;html=1;" edge="1" parent="1" source="fPP4Iizd9QlT9NWYujbH-10" target="fPP4Iizd9QlT9NWYujbH-2">
          <mxGeometry relative="1" as="geometry" />
        </mxCell>
        <mxCell id="fPP4Iizd9QlT9NWYujbH-8" value="" style="rounded=0;orthogonalLoop=1;jettySize=auto;html=1;" edge="1" parent="1" source="fPP4Iizd9QlT9NWYujbH-10" target="fPP4Iizd9QlT9NWYujbH-6">
          <mxGeometry relative="1" as="geometry" />
        </mxCell>
        <mxCell id="fPP4Iizd9QlT9NWYujbH-9" value="" style="rounded=0;orthogonalLoop=1;jettySize=auto;html=1;" edge="1" parent="1" source="fPP4Iizd9QlT9NWYujbH-10" target="fPP4Iizd9QlT9NWYujbH-4">
          <mxGeometry relative="1" as="geometry" />
        </mxCell>
        <mxCell id="fPP4Iizd9QlT9NWYujbH-10" value="router" style="image;aspect=fixed;html=1;points=[];align=center;fontSize=12;image=img/lib/azure2/databases/Azure_Database_MySQL_Server.svg;" vertex="1" parent="1">
          <mxGeometry x="420" y="120" width="48" height="64" as="geometry" />
        </mxCell>
        <mxCell id="fPP4Iizd9QlT9NWYujbH-11" value="" style="edgeStyle=orthogonalEdgeStyle;rounded=0;orthogonalLoop=1;jettySize=auto;html=1;" edge="1" parent="1" source="fPP4Iizd9QlT9NWYujbH-12" target="fPP4Iizd9QlT9NWYujbH-10">
          <mxGeometry relative="1" as="geometry" />
        </mxCell>
        <mxCell id="fPP4Iizd9QlT9NWYujbH-12" value="App服务器" style="image;aspect=fixed;html=1;points=[];align=center;fontSize=12;image=img/lib/azure2/app_services/App_Services.svg;" vertex="1" parent="1">
          <mxGeometry x="580" y="12" width="68" height="68" as="geometry" />
        </mxCell>
        <mxCell id="fPP4Iizd9QlT9NWYujbH-13" value="" style="edgeStyle=orthogonalEdgeStyle;rounded=0;orthogonalLoop=1;jettySize=auto;html=1;" edge="1" parent="1" source="fPP4Iizd9QlT9NWYujbH-15" target="fPP4Iizd9QlT9NWYujbH-10">
          <mxGeometry relative="1" as="geometry" />
        </mxCell>
        <mxCell id="fPP4Iizd9QlT9NWYujbH-14" value="" style="rounded=0;orthogonalLoop=1;jettySize=auto;html=1;" edge="1" parent="1" source="fPP4Iizd9QlT9NWYujbH-15" target="fPP4Iizd9QlT9NWYujbH-22">
          <mxGeometry relative="1" as="geometry" />
        </mxCell>
        <mxCell id="fPP4Iizd9QlT9NWYujbH-15" value="App服务器" style="image;aspect=fixed;html=1;points=[];align=center;fontSize=12;image=img/lib/azure2/app_services/App_Services.svg;" vertex="1" parent="1">
          <mxGeometry x="580" y="240" width="68" height="68" as="geometry" />
        </mxCell>
        <mxCell id="fPP4Iizd9QlT9NWYujbH-16" value="" style="edgeStyle=orthogonalEdgeStyle;rounded=0;orthogonalLoop=1;jettySize=auto;html=1;" edge="1" parent="1" source="fPP4Iizd9QlT9NWYujbH-17" target="fPP4Iizd9QlT9NWYujbH-10">
          <mxGeometry relative="1" as="geometry" />
        </mxCell>
        <mxCell id="fPP4Iizd9QlT9NWYujbH-17" value="App服务器" style="image;aspect=fixed;html=1;points=[];align=center;fontSize=12;image=img/lib/azure2/app_services/App_Services.svg;" vertex="1" parent="1">
          <mxGeometry x="580" y="118" width="68" height="68" as="geometry" />
        </mxCell>
        <mxCell id="fPP4Iizd9QlT9NWYujbH-18" value="" style="rounded=0;orthogonalLoop=1;jettySize=auto;html=1;" edge="1" parent="1" source="fPP4Iizd9QlT9NWYujbH-21" target="fPP4Iizd9QlT9NWYujbH-12">
          <mxGeometry relative="1" as="geometry" />
        </mxCell>
        <mxCell id="fPP4Iizd9QlT9NWYujbH-19" value="" style="rounded=0;orthogonalLoop=1;jettySize=auto;html=1;" edge="1" parent="1" source="fPP4Iizd9QlT9NWYujbH-21" target="fPP4Iizd9QlT9NWYujbH-17">
          <mxGeometry relative="1" as="geometry" />
        </mxCell>
        <mxCell id="fPP4Iizd9QlT9NWYujbH-20" value="" style="rounded=0;orthogonalLoop=1;jettySize=auto;html=1;" edge="1" parent="1" source="fPP4Iizd9QlT9NWYujbH-21" target="fPP4Iizd9QlT9NWYujbH-15">
          <mxGeometry relative="1" as="geometry" />
        </mxCell>
        <mxCell id="fPP4Iizd9QlT9NWYujbH-21" value="" style="image;aspect=fixed;html=1;points=[];align=center;fontSize=12;image=img/lib/azure2/app_services/App_Service_Domains.svg;" vertex="1" parent="1">
          <mxGeometry x="770" y="124.5" width="68" height="55.00000000000001" as="geometry" />
        </mxCell>
        <mxCell id="fPP4Iizd9QlT9NWYujbH-22" value="NFS" style="image;aspect=fixed;html=1;points=[];align=center;fontSize=12;image=img/lib/azure2/storage/StorSimple_Data_Managers.svg;" vertex="1" parent="1">
          <mxGeometry x="500" y="460" width="48" height="64" as="geometry" />
        </mxCell>
        <mxCell id="fPP4Iizd9QlT9NWYujbH-23" value="" style="endArrow=classic;html=1;rounded=0;" edge="1" parent="1" source="fPP4Iizd9QlT9NWYujbH-12" target="fPP4Iizd9QlT9NWYujbH-22">
          <mxGeometry width="50" height="50" relative="1" as="geometry">
            <mxPoint x="420" y="220" as="sourcePoint" />
            <mxPoint x="470" y="170" as="targetPoint" />
          </mxGeometry>
        </mxCell>
        <mxCell id="fPP4Iizd9QlT9NWYujbH-24" value="" style="endArrow=classic;html=1;rounded=0;" edge="1" parent="1" source="fPP4Iizd9QlT9NWYujbH-17" target="fPP4Iizd9QlT9NWYujbH-22">
          <mxGeometry width="50" height="50" relative="1" as="geometry">
            <mxPoint x="420" y="220" as="sourcePoint" />
            <mxPoint x="560" y="200" as="targetPoint" />
          </mxGeometry>
        </mxCell>
        <mxCell id="fPP4Iizd9QlT9NWYujbH-25" value="Redis集群" style="image;aspect=fixed;html=1;points=[];align=center;fontSize=12;image=img/lib/azure2/databases/Cache_Redis.svg;" vertex="1" parent="1">
          <mxGeometry x="310" y="466" width="64" height="52" as="geometry" />
        </mxCell>
        <mxCell id="fPP4Iizd9QlT9NWYujbH-26" value="" style="edgeStyle=orthogonalEdgeStyle;rounded=0;orthogonalLoop=1;jettySize=auto;html=1;" edge="1" parent="1" source="fPP4Iizd9QlT9NWYujbH-29" target="fPP4Iizd9QlT9NWYujbH-10">
          <mxGeometry relative="1" as="geometry" />
        </mxCell>
        <mxCell id="fPP4Iizd9QlT9NWYujbH-27" value="" style="edgeStyle=orthogonalEdgeStyle;rounded=0;orthogonalLoop=1;jettySize=auto;html=1;" edge="1" parent="1" source="fPP4Iizd9QlT9NWYujbH-29" target="fPP4Iizd9QlT9NWYujbH-25">
          <mxGeometry relative="1" as="geometry" />
        </mxCell>
        <mxCell id="fPP4Iizd9QlT9NWYujbH-28" value="" style="edgeStyle=orthogonalEdgeStyle;rounded=0;orthogonalLoop=1;jettySize=auto;html=1;" edge="1" parent="1" source="fPP4Iizd9QlT9NWYujbH-29" target="fPP4Iizd9QlT9NWYujbH-22">
          <mxGeometry relative="1" as="geometry" />
        </mxCell>
        <mxCell id="fPP4Iizd9QlT9NWYujbH-29" value="ETL" style="image;aspect=fixed;html=1;points=[];align=center;fontSize=12;image=img/lib/azure2/storage/StorSimple_Data_Managers.svg;" vertex="1" parent="1">
          <mxGeometry x="420" y="460" width="48" height="64" as="geometry" />
        </mxCell>
        <mxCell id="i6SBmhOwLSeUuUsg1Zj5-3" value="" style="edgeStyle=orthogonalEdgeStyle;rounded=0;orthogonalLoop=1;jettySize=auto;html=1;" edge="1" parent="1" source="fPP4Iizd9QlT9NWYujbH-30" target="i6SBmhOwLSeUuUsg1Zj5-2">
          <mxGeometry relative="1" as="geometry" />
        </mxCell>
        <mxCell id="fPP4Iizd9QlT9NWYujbH-30" value="ClickHouse" style="image;aspect=fixed;html=1;points=[];align=center;fontSize=12;image=img/lib/azure2/storage/StorSimple_Data_Managers.svg;" vertex="1" parent="1">
          <mxGeometry x="288" y="350" width="48" height="64" as="geometry" />
        </mxCell>
        <mxCell id="i6SBmhOwLSeUuUsg1Zj5-2" value="ClickHouse" style="image;aspect=fixed;html=1;points=[];align=center;fontSize=12;image=img/lib/azure2/storage/StorSimple_Data_Managers.svg;" vertex="1" parent="1">
          <mxGeometry x="140" y="350" width="48" height="64" as="geometry" />
        </mxCell>
        <mxCell id="i6SBmhOwLSeUuUsg1Zj5-4" value="" style="endArrow=classic;html=1;rounded=0;exitX=0.938;exitY=0.203;exitDx=0;exitDy=0;exitPerimeter=0;" edge="1" parent="1" source="fPP4Iizd9QlT9NWYujbH-30" target="fPP4Iizd9QlT9NWYujbH-12">
          <mxGeometry width="50" height="50" relative="1" as="geometry">
            <mxPoint x="400" y="330" as="sourcePoint" />
            <mxPoint x="450" y="280" as="targetPoint" />
          </mxGeometry>
        </mxCell>
        <mxCell id="i6SBmhOwLSeUuUsg1Zj5-5" value="" style="endArrow=classic;html=1;rounded=0;" edge="1" parent="1" source="fPP4Iizd9QlT9NWYujbH-30" target="fPP4Iizd9QlT9NWYujbH-17">
          <mxGeometry width="50" height="50" relative="1" as="geometry">
            <mxPoint x="400" y="330" as="sourcePoint" />
            <mxPoint x="450" y="280" as="targetPoint" />
          </mxGeometry>
        </mxCell>
        <mxCell id="i6SBmhOwLSeUuUsg1Zj5-6" value="" style="endArrow=classic;html=1;rounded=0;" edge="1" parent="1" source="fPP4Iizd9QlT9NWYujbH-30" target="fPP4Iizd9QlT9NWYujbH-15">
          <mxGeometry width="50" height="50" relative="1" as="geometry">
            <mxPoint x="400" y="330" as="sourcePoint" />
            <mxPoint x="450" y="280" as="targetPoint" />
          </mxGeometry>
        </mxCell>
        <mxCell id="i6SBmhOwLSeUuUsg1Zj5-8" value="" style="edgeStyle=orthogonalEdgeStyle;rounded=0;orthogonalLoop=1;jettySize=auto;html=1;" edge="1" parent="1" source="i6SBmhOwLSeUuUsg1Zj5-7" target="fPP4Iizd9QlT9NWYujbH-30">
          <mxGeometry relative="1" as="geometry" />
        </mxCell>
        <mxCell id="i6SBmhOwLSeUuUsg1Zj5-7" value="ETL" style="image;aspect=fixed;html=1;points=[];align=center;fontSize=12;image=img/lib/azure2/storage/StorSimple_Data_Managers.svg;" vertex="1" parent="1">
          <mxGeometry x="288" y="240" width="48" height="64" as="geometry" />
        </mxCell>
        <mxCell id="i6SBmhOwLSeUuUsg1Zj5-10" value="" style="endArrow=classic;html=1;rounded=0;" edge="1" parent="1" source="fPP4Iizd9QlT9NWYujbH-10" target="i6SBmhOwLSeUuUsg1Zj5-7">
          <mxGeometry width="50" height="50" relative="1" as="geometry">
            <mxPoint x="400" y="330" as="sourcePoint" />
            <mxPoint x="450" y="280" as="targetPoint" />
          </mxGeometry>
        </mxCell>
      </root>
    </mxGraphModel>
  </diagram>
  <diagram id="IMLo_JvIDd6dKpWcS0jT" name="L5">
    <mxGraphModel dx="892" dy="621" grid="1" gridSize="10" guides="1" tooltips="1" connect="1" arrows="1" fold="1" page="1" pageScale="1" pageWidth="850" pageHeight="1100" math="0" shadow="0">
      <root>
        <mxCell id="0" />
        <mxCell id="1" parent="0" />
      </root>
    </mxGraphModel>
  </diagram>
</mxfile>
